<?xml version="1.0" standalone="no"?><!DOCTYPE svg PUBLIC "-//W3C//DTD SVG 1.1//EN" "http://www.w3.org/Graphics/SVG/1.1/DTD/svg11.dtd"><svg t="1565158827718" class="icon" viewBox="0 0 1024 1024" version="1.1" xmlns="http://www.w3.org/2000/svg" p-id="4902" xmlns:xlink="http://www.w3.org/1999/xlink" width="300" height="300"><defs><style type="text/css"></style></defs><path d="M706.034932 153.745401 441.107692 153.745401c-29.260755 0-52.985448 23.724693-52.985448 52.985448l264.923627 0 0 185.448165 185.451777 0 0 344.404508-158.95815 0 0 52.985448 158.95815 0c29.258949 0 52.983642-23.726499 52.983642-52.985448L891.48129 339.193565 706.034932 153.745401zM706.034932 339.193565l0-110.522569 110.497282 110.522569L706.034932 339.193565zM176.180453 233.224476c-29.260755 0-52.985448 23.724693-52.985448 52.985448l0 556.3463c0 29.258949 23.724693 52.985448 52.985448 52.985448l397.389956 0c29.264368 0 52.987254-23.726499 52.987254-52.985448L626.557663 445.166267l-185.448165-211.941792L176.180453 233.224476zM573.570409 842.556224 176.180453 842.556224 176.180453 286.209924l211.941792 0 0 211.941792 185.446358 0L573.568603 842.556224zM441.107692 445.166267 441.107692 311.916039l113.715965 133.248422L441.107692 445.164461z" p-id="4903" fill="#2db7f5"></path></svg>