<?xml version="1.0" encoding="UTF-8"?>
<svg width="96px" height="32px" viewBox="0 0 96 32" version="1.1" xmlns="http://www.w3.org/2000/svg"
     xmlns:xlink="http://www.w3.org/1999/xlink">
    <!-- Generator: Sketch 50 (54983) - http://www.bohemiancoding.com/sketch -->
    <title>Logo</title>
    <desc>Created with Sketch.</desc>
    <defs></defs>
    <g id="Page-1" stroke="none" stroke-width="1" fill="none" fill-rule="evenodd">
        <g id="Landing-01" transform="translate(-149.000000, -29.000000)" fill="#3e86f7eb">
            <g id="Header">
                <g id="Logo" transform="translate(150.000000, 30.000000)">
                    <ellipse id="Oval" cx="92.2195122" cy="22.3255814" rx="2.7804878" ry="2.79069767"></ellipse>
                    <path d="M7.16983461,24.8600224 C4.66923559,24.8600224 2.02247489,24.0201568 0,22.1388578 L2.7828266,18.7793953 C4.45805404,20.1903695 6.3564336,20.9294513 8.02349961,20.9294513 C9.4905177,20.9294513 10.2558466,20.3919373 10.4036004,19.5856663 L10.4159132,19.518477 C10.6190747,18.4098544 8.95304653,18.0403135 7.09672398,17.4356103 C4.73156594,16.6965286 2.113028,15.5207167 2.75329442,12.0268757 L2.76560723,11.9596865 C3.43665569,8.29787234 6.74623275,6.24860022 10.3470953,6.24860022 C12.6143051,6.24860022 14.9399654,7.0212766 16.6336621,8.33146697 L14.0534427,11.8589026 C12.4772014,10.8174692 10.8270831,10.1791713 9.52677165,10.1791713 C8.2931428,10.1791713 7.56115519,10.7166853 7.43187063,11.4221725 L7.41955781,11.4893617 C7.23486557,12.4972004 8.84908319,12.9675252 10.6597516,13.6394177 C13.0064404,14.4792833 15.6855046,15.6886898 15.0821766,18.980963 L15.0698638,19.0481523 C14.3372513,23.0459127 11.0374278,24.8600224 7.16983461,24.8600224 Z M24.9770321,18.7793953 L31.1250554,6.51735722 L36.392984,6.51735722 L26.1448041,24.9608063 C24.1067615,28.6226204 22.3873307,30 19.3532706,30 C17.519498,30 16.2386935,29.5296753 15.0799794,28.7569989 L17.4575916,25.0615901 C18.0505411,25.4647256 18.8286665,25.7670773 19.4954929,25.7670773 C20.3623672,25.7670773 20.878397,25.4983203 21.4780571,24.5912654 L17.7885273,6.51735722 L23.1564799,6.51735722 L24.9770321,18.7793953 Z M33.9974656,29.8992161 L38.2823255,6.51735722 L43.3502061,6.51735722 L42.8761627,9.10414334 C44.417612,7.42441209 46.3458064,6.18141097 48.9797707,6.18141097 C53.1474357,6.18141097 56.5117248,9.47368421 55.4097278,15.4871221 C54.295418,21.5677492 49.7911556,24.8600224 45.5568079,24.8600224 C42.856161,24.8600224 41.416882,23.6170213 40.4813201,22.1724524 L39.0653462,29.8992161 L33.9974656,29.8992161 Z M45.050673,20.5263158 C47.4179068,20.5263158 49.7754576,18.5778275 50.3295343,15.5543113 L50.3418472,15.4871221 C50.8897675,12.4972004 49.2525163,10.5151176 46.8852826,10.5151176 C44.5180488,10.5151176 42.1876829,12.4972004 41.6397626,15.4871221 L41.6274498,15.5543113 C41.0795295,18.5442329 42.6834393,20.5263158 45.050673,20.5263158 Z M56.3765046,24.5240761 L60.8706824,0 L65.938563,0 L64.2763329,9.07054871 C65.7203175,7.55879059 67.4730896,6.18141097 70.0403713,6.18141097 C73.8746231,6.18141097 75.6406045,8.73460246 74.8833664,12.8667413 L72.7470928,24.5240761 L67.6792122,24.5240761 L69.5199781,14.4792833 C69.9632395,12.0604703 69.0574217,10.8174692 67.1236251,10.8174692 C65.1898285,10.8174692 63.7284126,12.0604703 63.2851512,14.4792833 L61.4443853,24.5240761 L56.3765046,24.5240761 Z M82.016141,24.8264278 C78.9153983,24.8264278 77.0426822,23.5834267 77.8060767,19.4176932 L81.0135653,1.91489362 L86.0814459,1.91489362 L85.238018,6.51735722 L89.4390244,6.51735722 L88.6386914,10.8846585 L84.437685,10.8846585 L83.0278676,18.5778275 C82.8123933,19.7536394 83.2078542,20.324748 84.3414591,20.324748 C85.2750161,20.324748 86.1516439,20.0895857 86.9590299,19.6864502 L86.2079481,23.7849944 C85.0240541,24.4232923 83.7165484,24.8264278 82.016141,24.8264278 Z"
                          id="sypht" stroke="#3e86f7eb" stroke-width="0.697674419" stroke-linecap="round"
                          stroke-linejoin="round"></path>
                </g>
            </g>
        </g>
    </g>
</svg>
