<?xml version="1.0" standalone="no"?><!DOCTYPE svg PUBLIC "-//W3C//DTD SVG 1.1//EN" "http://www.w3.org/Graphics/SVG/1.1/DTD/svg11.dtd"><svg t="1565158541804" class="icon" viewBox="0 0 1024 1024" version="1.1" xmlns="http://www.w3.org/2000/svg" p-id="2394" width="300" height="300" xmlns:xlink="http://www.w3.org/1999/xlink"><defs><style type="text/css"></style></defs><path d="M960 532.48v377.728c0 27.52-23.296 49.792-52.096 49.792H116.096c-28.8 0-52.096-22.272-52.096-49.792V532.48c0-27.52 23.296-49.792 52.096-49.792 28.8 0 52.096 22.272 52.096 49.792v327.936h687.616V532.48c0-27.52 23.36-49.792 52.096-49.792 28.8 0 52.096 22.272 52.096 49.792zM341.376 351.36l118.528-115.648v431.04c0 27.52 23.296 49.792 52.096 49.792 28.8 0 52.096-22.272 52.096-49.792V235.712l118.528 115.648a53.12 53.12 0 0 0 37.184 14.912 53.248 53.248 0 0 0 36.48-14.208 48.256 48.256 0 0 0 0.768-70.4L549.248 78.976A53.312 53.312 0 0 0 512 64a53.312 53.312 0 0 0-37.184 14.912L267.008 281.664c-20.16 19.648-19.84 51.2 0.704 70.4a53.76 53.76 0 0 0 73.664-0.704z" fill="#2db7f5" p-id="2395"></path></svg>